# xmcd
#
# Track frame offsets:
#	150
#	14717
#	29982
#	43295
#	57770
#	70642
#	87151
#	102443
#	116462
#	131125
#	146205
#	161681
#	176407
#	189906
#	204183
#	218399
#	233622
#	249372
#	267203
#
# Disc length: 3767 seconds
#
# Revision: 1
# Processed by: cddbd v1.5.2PL0 Copyright (c) Steve Scherf et al.
# Submitted via: audiograbber 1.83.01
#
DISCID=0c0eb513
DTITLE=Various Artist - Promo Only Country Radio Aug. 2016
DYEAR=2016
DGENRE=Country
TTITLE0=Chris Young f. Vince Gill - Sober Saturday Night
TTITLE1=Thompson Square - You Make It Look So Good
TTITLE2=Dierks Bentley f. Elle King - Different For Girls
TTITLE3=Old Dominion - Song For Another Time
TTITLE4=Gary Allan - Do You Wish It Was Me?
TTITLE5=Thomas Rhett - Vacation
TTITLE6=Farewell Angelina - Shotgun Summer
TTITLE7=Eli Young Band - Saltwater Gospel
TTITLE8=Stephanie Quayle - Drinking With Dolly
TTITLE9=Adley Stump - Don't Wanna Love Him
TTITLE10=Mickey Guyton - Heartbreak Song
TTITLE11=Dylan Scott - My Girl
TTITLE12=Runaway June - Lipstick
TTITLE13=Blake Shelton - She's Got A Way With Words
TTITLE14=Cassadee Pope - Summer
TTITLE15=The Last Bandoleros - Where Do You Go?
TTITLE16=Maren Morris - 80's Mercedes
TTITLE17=Presley and Taylor - My Hometown
TTITLE18=Steve Moakler - Suitcase
EXTD=
EXTT0=
EXTT1=
EXTT2=
EXTT3=
EXTT4=
EXTT5=
EXTT6=
EXTT7=
EXTT8=
EXTT9=
EXTT10=
EXTT11=
EXTT12=
EXTT13=
EXTT14=
EXTT15=
EXTT16=
EXTT17=
EXTT18=
PLAYORDER=
